<?xml version="1.0" encoding="UTF-8" standalone="no"?>
<!-- Created with Inkscape (http://www.inkscape.org/) -->

<svg
   version="1.1"
   id="svg2"
   width="171.92693"
   height="171.92691"
   viewBox="0 0 171.92693 171.92691"
   sodipodi:docname="ASV-Berlin.svg"
   inkscape:version="1.1.2 (0a00cf5339, 2022-02-04)"
   inkscape:export-filename="/var/www/asv/templates/bfive/icons/apple-touch-icon-precomponsed.png"
   inkscape:export-xdpi="108"
   inkscape:export-ydpi="108"
   xmlns:inkscape="http://www.inkscape.org/namespaces/inkscape"
   xmlns:sodipodi="http://sodipodi.sourceforge.net/DTD/sodipodi-0.dtd"
   xmlns="http://www.w3.org/2000/svg"
   xmlns:svg="http://www.w3.org/2000/svg">
  <defs
     id="defs6">
    <filter
       inkscape:collect="always"
       style="color-interpolation-filters:sRGB"
       id="filter1291"
       x="-0.052919999"
       y="-0.052920002"
       width="1.10584"
       height="1.10584">
      <feGaussianBlur
         inkscape:collect="always"
         stdDeviation="3.428153"
         id="feGaussianBlur1293" />
    </filter>
  </defs>
  <sodipodi:namedview
     id="namedview4"
     pagecolor="#ffffff"
     bordercolor="#ffffff"
     borderopacity="1"
     inkscape:pageshadow="0"
     inkscape:pageopacity="0"
     inkscape:pagecheckerboard="1"
     showgrid="false"
     inkscape:zoom="3.4637682"
     inkscape:cx="-54.131798"
     inkscape:cy="142.18619"
     inkscape:current-layer="g8"
     fit-margin-top="0"
     fit-margin-left="0"
     fit-margin-right="0"
     fit-margin-bottom="0"
     lock-margins="true" />
  <g
     inkscape:groupmode="layer"
     inkscape:label="Image"
     id="g8"
     transform="translate(4.0181547,5.037126)">
    <path
       id="path420"
       style="mix-blend-mode:normal;fill:#000000;fill-opacity:0.25386858;stroke:none;stroke-width:2;stroke-linecap:round;stroke-linejoin:round;stroke-miterlimit:4;stroke-dasharray:none;stroke-opacity:1;paint-order:stroke fill markers;filter:url(#filter1291);stop-color:#000000"
       d="M 159.68121,80.926338 A 77.73589,77.735904 0 0 1 81.945309,158.66223 77.73589,77.735904 0 0 1 4.2094126,80.926338 77.73589,77.735904 0 0 1 81.945309,3.1904414 77.73589,77.735904 0 0 1 159.68121,80.926338 Z" />
    <path
       id="path90"
       style="fill:#ffffff;fill-opacity:1;stroke:#049a67;stroke-width:2;stroke-linecap:round;stroke-linejoin:round;stroke-miterlimit:4;stroke-dasharray:none;stroke-opacity:1;paint-order:stroke fill markers;stop-color:#000000"
       d="M 157.68121,78.926338 A 77.73589,77.735904 0 0 1 79.945309,156.66223 77.73589,77.735904 0 0 1 2.2094126,78.926338 77.73589,77.735904 0 0 1 79.945309,1.1904414 77.73589,77.735904 0 0 1 157.68121,78.926338 Z" />
    <g
       aria-label="Allgemeiner Sport-Verein Berlin e.V."
       transform="matrix(-0.07021164,0.00532066,-0.00532066,-0.07021164,163.96319,148.53272)"
       id="text17267"
       style="font-weight:600;font-size:173.333px;line-height:1.25;font-family:'Open Sans';-inkscape-font-specification:'Open Sans Semi-Bold';font-variant-ligatures:none;fill:#049a67;stroke-width:2.10123"
       inkscape:transform-center-x="28.589825"
       inkscape:transform-center-y="-553.63917">
      <path
         d="m 1998.0208,1146.6323 35.0781,-10.1466 3.0086,-47.2154 -33.5227,-14.2635 1.3562,-21.2849 121.0491,54.1027 -1.3993,21.9606 -126.9371,38.3009 z m 52.8168,-14.3592 34.3539,-9.4295 q 3.4593,-1.0516 10.8686,-2.8693 7.4038,-1.7332 10.8362,-2.3626 -10.2438,-2.9425 -22.2957,-8.1204 l -31.4703,-13.1998 z"
         id="path65883" />
      <path
         d="m 1989.9202,1201.682 3.0542,-19.6534 130.1305,20.2227 -3.0542,19.6534 z"
         id="path65885" />
      <path
         d="m 1980.6949,1249.1171 4.105,-19.461 128.857,27.1808 -4.1051,19.461 z"
         id="path65887" />
      <path
         d="m 2041.9115,1379.3381 -10.4673,-3.1043 1.7081,-16.1781 q -3.4656,1.2675 -8.013,1.4196 -4.5473,0.1522 -9.1724,-1.2194 -13.8753,-4.115 -18.9877,-16.048 -5.1124,-11.9331 -0.1312,-28.7295 1.2754,-4.3005 2.9593,-7.5971 -1.9848,-7.2978 -7.0968,-8.8139 -3.0834,-0.9144 -5.4673,1.4684 -2.408,2.4639 -4.6941,10.1724 l -4.6443,15.6604 q -4.4037,14.849 -13.0189,20.6805 -8.6152,5.8316 -20.5431,2.2942 -15.2547,-4.5241 -19.8013,-19.5556 -4.5466,-15.0316 2.5042,-38.8062 5.4384,-18.3382 14.7934,-26.069 9.355,-7.7308 21.364,-4.1693 8.2765,2.4545 12.4164,9.3321 4.0347,6.9346 3.4341,16.9969 2.7538,-3.3324 7.0701,-4.789 4.3733,-1.3514 8.3492,-0.1723 5.0309,1.492 7.6777,5.3667 2.6469,3.8747 4.3945,10.4842 5.0717,-6.0878 13.106,-8.4722 8.0913,-2.2792 17.1792,0.416 14.6056,4.3315 19.9195,15.8829 5.2898,11.6325 0.2363,28.6724 -1.131,3.8137 -2.9262,7.7835 -1.7382,4.075 -2.9319,6.0162 z m -82.7881,-101.2663 q -6.1668,-1.8288 -11.13,2.7022 -4.9872,4.6122 -7.9711,14.6738 -4.6203,15.5793 -2.4195,24.5302 2.2008,8.9509 9.5847,11.1407 5.8423,1.7326 9.609,-1.7408 3.6615,-3.4163 7.0305,-14.7762 l 4.2834,-14.4434 q 2.4304,-8.1953 0.061,-14.1948 -2.4751,-5.9425 -9.0476,-7.8917 z m 72.2204,30.3342 q -8.4388,-2.5026 -14.2582,0.4503 -5.8434,3.0341 -8.2498,11.1483 -4.909,16.553 12.78,21.799 8.7633,2.5989 14.6968,-0.1437 5.9906,-2.6373 8.4692,-10.9949 2.4545,-8.2765 -0.9763,-13.9728 -3.455,-5.6151 -12.4617,-8.2862 z"
         id="path65889" />
      <path
         d="m 1928.4536,1405.9994 q 8.4492,-20.1349 24.9369,-26.6168 16.533,-6.3711 37.1363,2.2747 21.1495,8.8749 28.825,24.4868 7.6754,15.6118 -0.053,34.0298 -7.172,17.0913 -21.7108,22.6471 -14.5388,5.5558 -32.7227,-2.0747 l -9.9114,-4.1591 24.136,-57.5174 q -12.7286,-4.8823 -22.2037,-1.332 -9.3971,3.5831 -14.2767,15.2114 -3.2094,7.6482 -4.5555,14.7932 -1.3009,7.2559 -1.1217,16.2342 l -14.9061,-6.255 q -0.3833,-8.0544 1.1719,-15.4789 1.5551,-7.4245 5.2558,-16.2433 z m 76.9533,28.3452 q 3.6679,-8.7408 0.3538,-16.3728 -3.3468,-7.554 -13.5349,-13.0225 l -16.4399,39.1774 q 10.7573,4.3305 18.3162,1.6282 7.6369,-2.6695 11.3048,-11.4103 z"
         id="path65891" />
      <path
         d="m 1866.4927,1528.8741 10.3521,-17.0818 49.3637,29.9159 q 9.1924,5.5709 15.7855,4.8163 6.6656,-0.7108 11.1398,-8.0937 5.9656,-9.8437 2.3311,-18.3801 -3.606,-8.4201 -18.5164,-17.4563 l -39.8819,-24.1697 10.3083,-17.0095 80.0532,48.5148 -8.0712,13.3181 -11.9427,-3.9719 -0.5264,0.8686 q 3.7003,6.7948 2.9964,14.9781 -0.7478,8.2558 -5.3536,15.8557 -11.1856,18.4571 -27.4207,16.8322 l -0.7018,1.1581 q 3.7858,7.1436 3.2114,15.6033 -0.5745,8.4597 -5.619,16.7835 -8.6853,14.3314 -19.8712,16.4591 -11.2298,2.2002 -26.0679,-6.7921 l -52.1865,-31.6268 10.3083,-17.0095 49.3637,29.916 q 9.1923,5.5709 15.8293,4.7439 6.6655,-0.7108 11.1398,-8.0937 6.0095,-9.9161 2.5921,-18.3209 -3.3889,-8.2885 -16.2003,-16.0526 z"
         id="path65893" />
      <path
         d="m 1790.2616,1631.0932 q 13.9404,-16.8069 31.6006,-18.2129 17.6713,-1.2868 34.869,12.9778 17.6538,14.6428 20.4565,31.8122 2.8028,17.1693 -9.9489,32.5431 -11.8331,14.2663 -27.3593,15.3531 -15.5261,1.0868 -30.7044,-11.5028 l -8.2732,-6.8621 39.822,-48.0104 q -10.7582,-8.3735 -20.8563,-7.7326 -10.033,0.6949 -18.0838,10.4012 -5.2952,6.384 -8.6614,12.8286 -3.355,6.5638 -5.795,15.206 l -12.4423,-10.3202 q 1.9759,-7.8176 5.6233,-14.4687 3.6475,-6.6512 9.7532,-14.0123 z m 65.3818,49.5024 q 6.0516,-7.2961 5.1007,-15.5621 -1.005,-8.2009 -9.162,-16.3962 l -27.1244,32.7018 q 9.0327,7.2722 17.0508,6.8853 8.0832,-0.3328 14.1349,-7.6288 z"
         id="path65895" />
      <path
         d="m 1738.3051,1690.3282 13.9133,-14.2127 66.8908,65.4814 -13.9133,14.2127 z m 99.3536,67.7692 q 3.8102,3.7299 3.8535,7.7993 -0.016,4.1297 -3.805,8.0005 -3.6708,3.7497 -7.7401,3.793 -4.1285,0.1038 -7.9387,-3.6261 -3.6288,-3.5523 -3.6734,-7.7413 -0.043,-4.0693 3.6274,-7.8191 3.7892,-3.8707 7.9177,-3.9745 4.1298,0.016 7.7586,3.5682 z"
         id="path65897" />
      <path
         d="m 1655.8955,1764.3235 15.172,-12.9911 37.4319,43.7159 q 7.046,8.2289 13.8569,9.4166 6.7467,1.2427 13.947,-4.9225 9.5789,-8.202 9.1706,-17.6576 -0.4082,-9.4556 -11.8029,-22.7632 l -30.3309,-35.4228 15.1077,-12.936 60.8819,71.1026 -11.829,10.1286 -10.1033,-7.5052 -0.7715,0.6606 q 1.1343,7.8311 -2.4131,15.6598 -3.5475,7.8287 -10.7478,13.994 -25.5866,21.9087 -47.8807,-4.128 z"
         id="path65899" />
      <path
         d="m 1598.7185,1802.2287 q 18.1265,-12.1752 35.4627,-8.5264 17.3132,3.7663 29.7716,22.3144 12.7886,19.0399 10.6184,36.3006 -2.1703,17.2607 -18.7512,28.3977 -15.3864,10.3347 -30.5855,6.9837 -15.1991,-3.3511 -26.1946,-19.7212 l -5.9932,-8.9227 51.7801,-34.7796 q -7.949,-11.0755 -17.8157,-13.3183 -9.8196,-2.1726 -20.288,4.8588 -6.8853,4.6247 -11.9375,9.8534 -5.0753,5.3461 -9.8611,12.9447 l -9.0134,-13.4193 q 4.1073,-6.939 9.4878,-12.2861 5.3804,-5.3472 13.3196,-10.6797 z m 48.7016,65.9804 q 7.8689,-5.2854 9.2959,-13.4826 1.3567,-8.1501 -4.1478,-18.3187 l -35.2695,23.6897 q 6.6056,9.531 14.4055,11.4288 7.847,1.9681 15.7159,-3.3172 z"
         id="path65901" />
      <path
         d="m 1553.0363,1941.2752 q -5.2894,2.8516 -9.118,3.9541 l -7.0822,-17.2389 q 4.2069,-1.1142 8.2298,-3.283 10.5043,-5.663 13.3652,-16.0512 2.7863,-10.3481 -3.1177,-21.2994 l -23.2143,-43.0602 17.5072,-9.4383 44.4205,82.3954 -13.7078,7.3901 -10.1413,-13.2822 -0.8939,0.4819 q -0.1213,9.5844 -4.3477,17.4397 -4.3009,7.8954 -11.8998,11.992 z"
         id="path65903" />
      <path
         d="m 1384.6278,1944.3759 q -5.6591,-15.5033 2.3297,-28.4202 7.9887,-12.9169 27.7058,-20.1141 19.717,-7.1972 34.5133,-5.6607 l 6.5587,17.9679 q -9.3144,-0.8346 -19.0024,0.2692 -9.7676,1.1327 -17.4795,3.9477 -11.2896,4.121 -15.0492,10.3586 -3.8392,6.2667 -1.1983,13.5016 2.3797,6.5193 8.9632,9.2518 6.5834,2.7324 24.2709,3.3037 18.2515,0.6356 27.789,6.5243 9.5375,5.8887 13.7746,17.4964 5.3108,14.5492 -1.9775,26.6699 -7.2884,12.1206 -24.6998,18.4762 -16.6958,6.0944 -35.9026,4.8164 l 0.3832,-17.7089 q 17.883,0.8602 30.0472,-3.58 9.2224,-3.3664 12.5126,-9.1624 3.3192,-5.7164 0.9105,-12.3153 -1.6542,-4.5317 -4.7522,-7.0949 -3.0689,-2.4836 -8.4864,-3.7496 -5.4175,-1.266 -18.4988,-1.8068 -14.7446,-0.6544 -22.3906,-3.0891 -7.646,-2.4346 -12.5472,-7.2227 -4.9012,-4.7881 -7.7742,-12.659 z"
         id="path65905" />
      <path
         d="m 1305.5805,1928.6441 q 17.2763,-4.1741 29.8208,5.9427 l 1.1518,-0.2783 q -3.9345,-11.2392 -4.5308,-13.7073 l -9.0041,-37.2675 19.333,-4.6709 31.7627,131.4645 -15.6309,3.7765 q -1.2743,-2.3913 -5.6566,-11.5197 l -0.9872,0.2385 q -5.7102,16.0074 -23.8092,20.3803 -17.0296,4.1144 -29.4719,-5.94 -12.5246,-10.0345 -17.9111,-32.3292 -5.3865,-22.2947 1.2999,-37.1449 6.6041,-14.8303 23.6336,-18.9447 z m 23.6515,77.3508 q 11.5176,-2.7827 15.2351,-10.8207 3.6353,-8.018 0.057,-22.8263 l -0.6957,-2.8794 q -4.015,-16.6182 -11.0889,-22.8325 -7.0541,-6.132 -18.983,-3.2499 -10.0367,2.4249 -13.4787,11.9636 -3.4421,9.5387 0.2351,24.7583 3.697,15.3019 11.015,21.8055 7.2556,6.6057 17.7036,4.0814 z"
         id="path65907" />
      <path
         d="m 1169.8144,1999.2353 q -2.7047,-22.7761 7.4604,-36.9382 10.1652,-14.1622 31.0083,-16.6374 13.0269,-1.547 23.7269,3.1485 10.6999,4.6954 17.3863,15.0665 6.6863,10.3711 8.4129,24.9108 2.6848,22.608 -7.4062,36.6761 -10.0911,14.0681 -31.1864,16.5733 -20.1707,2.3953 -33.4839,-9.2343 -13.3033,-11.5456 -15.9183,-33.5653 z m 67.656,-8.0345 q -3.8226,-32.1891 -27.6072,-29.3646 -23.5325,2.7946 -19.7099,34.9838 3.7826,31.8529 27.4832,29.0383 12.4386,-1.4771 17.0915,-10.3822 4.5689,-8.8951 2.7424,-24.2753 z"
         id="path65909" />
      <path
         d="m 1095.5872,2049.2196 q -6.0081,0.1074 -9.9158,-0.6693 l 1.6151,-18.5669 q 4.2492,0.9398 8.8188,0.8582 11.9317,-0.2133 19.2392,-8.1315 7.223,-7.9168 7.0007,-20.3562 l -0.874,-48.9114 19.8861,-0.3553 1.6725,93.5916 -15.5704,0.2783 -2.9182,-16.4544 -1.0154,0.018 q -4.5045,8.4607 -11.8635,13.5018 -7.4437,5.0427 -16.0751,5.1969 z"
         id="path65911" />
      <path
         d="m 1030.9386,1965.3836 q -7.2649,-0.447 -14.6701,1.3869 l 0.92,-14.9522 q 3.3829,-1.2333 8.6775,-1.8403 5.2154,-0.6967 10.7908,-0.3537 28.2148,1.736 26.3853,31.4714 l -3.0977,50.3474 12.7558,0.7848 -0.5406,8.7855 -14.132,6.4229 -7.9743,19.3514 -12.2489,-0.7536 1.2786,-20.781 -26.6098,-1.6372 0.9251,-15.0366 26.6098,1.6372 3.077,-50.0095 q 0.4418,-7.1804 -2.8931,-10.8622 -3.4246,-3.6025 -9.2534,-3.9612 z"
         id="path65913" />
      <path
         d="m 1001.8314,1986.5269 -2.19938,16.7836 -43.13373,-5.6525 2.19942,-16.7836 z"
         id="path65915" />
      <path
         d="m 845.3762,2045.2137 -20.47799,-4.6057 69.42864,-111.2125 20.80828,4.68 14.96051,130.1926 -20.31285,-4.5686 -8.30316,-80.7228 q -0.77459,-5.8129 -1.09119,-14.8193 -0.33517,-8.9238 -0.0672,-13.201 -2.48487,6.0341 -6.57148,13.7899 -4.0866,7.7558 -6.38177,11.4036 z"
         id="path65917" />
      <path
         d="m 800.55603,1899.8378 q 20.61043,7.2123 28.08052,23.2765 7.36225,16.116 -0.0177,37.2058 -7.57566,21.6489 -22.69313,30.2573 -15.11747,8.6084 -33.97042,2.0111 -17.49489,-6.122 -23.92239,-20.297 -6.4275,-14.175 0.0859,-32.7882 l 3.55022,-10.1455 58.87552,20.6025 q 4.10125,-13.0014 -0.0173,-22.2437 -4.14652,-9.1624 -16.04944,-13.3276 -7.82877,-2.7395 -15.04232,-3.6498 -7.32139,-0.8583 -16.27231,-0.1348 l 5.3393,-15.2581 q 8.01628,-0.8712 15.52141,0.2307 7.50514,1.102 16.53219,4.2608 z m -23.62486,78.5311 q 8.94716,3.1309 16.36414,-0.64 7.33708,-3.7989 12.1774,-14.2999 l -40.10246,-14.0332 q -3.66999,11.0002 -0.51414,18.3813 3.1279,7.4609 12.07506,10.5918 z"
         id="path65919" />
      <path
         d="m 661.87562,1946.6169 q -5.45305,-2.5246 -8.63044,-4.9283 l 9.55356,-16.0022 q 3.41349,2.6995 7.56089,4.6196 10.8293,5.0136 20.85931,1.0768 9.9532,-3.9725 15.18014,-15.2626 l 20.55221,-44.3925 18.04884,8.356 -39.32654,84.9448 -14.13186,-6.5426 4.55279,-16.0789 -0.92164,-0.4267 q -7.74439,5.6479 -16.56544,6.9734 -8.89785,1.29 -16.73182,-2.3368 z"
         id="path65921" />
      <path
         d="m 643.07612,1825.8277 q 18.83383,11.0496 23.06755,28.2523 4.1179,17.233 -7.18864,36.5048 -11.60635,19.7828 -28.09957,25.3159 -16.49322,5.5332 -33.72107,-4.5742 -15.98685,-9.3793 -19.56166,-24.5273 -3.57482,-15.1481 6.40407,-32.1569 l 5.43913,-9.2709 53.80051,31.5641 q 6.53028,-11.9671 4.27036,-21.8299 -2.30275,-9.7898 -13.17965,-16.1712 -7.15394,-4.1971 -14.05678,-6.4806 -7.01867,-2.2534 -15.9412,-3.2687 l 8.18011,-13.9429 q 8.03389,0.6902 15.1859,3.2181 7.15201,2.5278 15.40094,7.3674 z m -38.31837,72.5049 q 8.17592,4.7967 16.18065,2.5261 7.93174,-2.3135 14.70531,-11.6847 l -36.64566,-21.4995 q -5.72142,10.0865 -4.04741,17.9375 1.63118,7.9239 9.80711,12.7206 z"
         id="path65923" />
      <path
         d="m 576.24237,1784.096 16.26878,11.4416 -53.84857,76.5672 -16.26878,-11.4416 z m -50.87608,108.9744 q -3.06732,4.3615 -7.07648,5.0599 -4.07839,0.6497 -8.50904,-2.4663 -4.29219,-3.0187 -4.99059,-7.0278 -0.76763,-4.0579 2.29969,-8.4193 2.92126,-4.1537 7.04834,-4.8727 4.00917,-0.6984 8.30136,2.3203 4.43064,3.116 5.19827,7.1738 0.64971,4.0784 -2.27155,8.2321 z"
         id="path65925" />
      <path
         d="m 489.9412,1714.6792 15.26486,12.8819 -37.11713,43.9835 q -6.98675,8.2792 -7.0621,15.1925 -0.14003,6.8587 7.10431,12.9722 9.63756,8.133 18.90398,6.2073 9.26643,-1.9257 20.56532,-15.3148 l 30.07579,-35.6396 15.20018,12.8273 -60.36992,71.5378 -11.90142,-10.0434 5.78019,-11.1801 -0.77618,-0.655 q -7.54622,2.3806 -15.84404,0.1402 -8.29782,-2.2404 -15.54216,-8.3538 -25.74328,-21.7245 -3.63675,-47.9205 z"
         id="path65927" />
      <path
         d="m 342.12916,1740.759 -23.52802,-28.2073 q -16.37203,-19.6281 -17.91699,-33.1079 -1.59918,-13.5448 10.74963,-23.8451 8.31919,-6.9391 17.42165,-7.2576 9.10246,-0.3184 17.25461,6.5482 l 0.64994,-0.5422 q -6.46383,-11.5811 -4.77764,-20.9229 1.56699,-9.3526 11.05607,-17.2675 12.80376,-10.6798 27.56431,-7.7824 14.64135,2.8866 27.9233,18.81 l 28.62394,34.3167 z m 26.29953,-48.2776 -12.46877,-14.9485 q -8.1318,-9.7491 -14.92713,-11.6857 -6.86033,-1.8824 -14.26961,4.2978 -6.69436,5.5838 -5.61817,12.9521 1.02198,7.3033 9.80433,17.8323 l 11.22189,13.4537 z m 12.60878,-10.5171 30.09209,-25.1002 -13.76986,-16.5084 q -8.1318,-9.749 -15.95655,-11.5985 -7.94397,-1.8602 -16.00319,4.8621 -7.40928,6.1802 -6.7554,14.2313 0.65389,8.0512 9.2736,18.3852 z"
         id="path65929" />
      <path
         d="m 345.99625,1538.6879 q 11.89525,18.3114 7.98048,35.5896 -4.03185,17.2532 -22.76915,29.4251 -19.23412,12.4946 -36.45945,10.0594 -17.22532,-2.4352 -28.10625,-19.1852 -10.09713,-15.5434 -6.51292,-30.6892 3.58421,-15.1459 20.12129,-25.8885 l 9.01378,-5.8554 33.97985,52.3083 q 11.19638,-7.7779 13.59051,-17.609 2.32316,-9.785 -4.54658,-20.3602 -4.51835,-6.9555 -9.66877,-12.0875 -5.26749,-5.1568 -12.79165,-10.0588 l 13.55615,-8.8062 q 6.87505,4.2135 12.13891,9.6755 5.26386,5.4619 10.4738,13.4821 z m -66.72089,47.6821 q 5.16383,7.9492 13.33821,9.502 8.12828,1.4818 18.3802,-3.8659 l -23.14503,-35.6293 q -9.63131,6.4584 -11.64877,14.2282 -2.08844,7.8159 3.07539,15.765 z"
         id="path65931" />
      <path
         d="m 207.66785,1490.8755 q -2.77001,-5.3325 -3.81361,-9.1776 l 17.34568,-6.8167 q 1.04944,4.2235 3.15622,8.2793 5.50102,10.59 15.84409,13.6101 10.30406,2.945 21.34474,-2.7902 l 43.41163,-22.5503 9.16837,17.6501 -83.06793,43.1499 -7.17864,-13.8196 13.43635,-9.9361 -0.46818,-0.9013 q -9.58134,-0.2685 -17.37079,-4.615 -7.82846,-4.4217 -11.80793,-12.0826 z"
         id="path65933" />
      <path
         d="m 273.00778,1403.892 7.94156,18.235 -120.73898,52.5833 -7.94156,-18.235 z"
         id="path65935" />
      <path
         d="m 255.4045,1358.8885 6.95179,18.6348 -87.70256,32.7178 -6.95179,-18.6348 z m -103.57066,61.1303 q -4.99572,1.8637 -8.69761,0.1734 -3.73147,-1.7696 -5.62473,-6.8446 -1.83409,-4.9165 -0.14378,-8.6183 1.66073,-3.7812 6.65644,-5.6449 4.75783,-1.7749 8.5686,-0.035 3.70189,1.6903 5.53598,6.6067 1.89326,5.075 0.23253,8.8562 -1.76961,3.7315 -6.52743,5.5064 z"
         id="path65937" />
      <path
         d="m 223.45379,1252.8426 5.31041,19.2551 -55.48066,15.3012 q -10.44342,2.8802 -14.41345,8.5404 -3.99253,5.5787 -1.47233,14.7167 3.35275,12.1568 12.08522,15.8063 8.73247,3.6495 25.62144,-1.0084 l 44.95565,-12.3984 5.2879,19.1734 -90.23765,24.8869 -4.14032,-15.0124 11.08788,-5.9552 -0.27002,-0.979 q -7.57064,-2.3019 -13.14913,-8.8405 -5.5785,-6.5386 -8.09869,-15.6766 -8.95569,-32.4725 24.08794,-41.5857 z"
         id="path65939" />
      <path
         d="m 207.99045,1140.3714 q 2.23235,21.7214 -9.13314,35.3113 -11.45834,13.5144 -33.68498,15.7987 -22.81598,2.3448 -37.0338,-7.68 -14.21782,-10.0247 -16.25983,-29.894 -1.8949,-18.438 8.20373,-30.2811 10.09863,-11.8432 29.71532,-13.8592 l 10.69236,-1.0989 6.37693,62.0494 q 13.51162,-1.8141 20.1268,-9.4705 6.53098,-7.6479 5.24175,-20.1925 -0.84795,-8.2508 -3.09021,-15.1671 -2.33512,-6.9919 -6.79466,-14.7865 l 16.08063,-1.6526 q 4.19599,6.8857 6.38867,14.1475 2.19269,7.2618 3.17043,16.7755 z m -81.12561,11.9959 q 0.96909,9.4295 7.53508,14.5402 6.55734,5.0265 18.11991,4.9442 l -4.34358,-42.2642 q -11.51697,1.3537 -16.85664,7.3477 -5.42385,6.0026 -4.45477,15.4321 z"
         id="path65941" />
      <path
         d="m 191.98769,1084.8624 q -6.17708,0.1264 -9.54298,-3.0215 -3.3659,-3.1479 -3.4906,-9.2404 -0.12643,-6.1771 3.27708,-9.4635 3.31888,-3.2848 9.24211,-3.406 6.00784,-0.123 9.62933,3.1044 3.53513,3.1444 3.65983,9.2369 0.1247,6.0924 -3.27881,9.3789 -3.4035,3.2865 -9.49596,3.4112 z"
         id="path65943" />
      <path
         d="m 82.768555,953.39169 1.381329,-20.94404 120.616716,51.38247 -1.40361,21.28188 -126.309129,34.9272 1.37019,-20.7751 78.465479,-20.6948 q 5.62304,-1.6648 14.47196,-3.3713 8.76446,-1.71207 13.03161,-2.10919 -6.34592,-1.52118 -14.64071,-4.35837 -8.2948,-2.83718 -12.25379,-4.54022 z"
         id="path65945" />
      <path
         d="m 200.16497,927.95318 q -6.1069,-0.93707 -8.8817,-4.61662 -2.7748,-3.67956 -1.85057,-9.70281 0.93707,-6.10689 4.85476,-8.75953 3.83404,-2.66547 9.68997,-1.76691 5.93958,0.9114 8.95251,4.71313 2.94212,3.70523 2.01788,9.72847 -0.92423,6.02324 -4.84192,8.67587 -3.91769,2.65264 -9.94093,1.7284 z"
         id="path65947" />
    </g>
    <path
       id="path60706"
       style="fill:#049a67;fill-opacity:1;stroke-width:0.101585"
       d="m 70.58012,138.18255 c -0.886822,-0.27714 -1.948566,-1.05729 -2.372515,-1.74326 -0.287546,-0.46525 -0.286152,-1.09052 0.0037,-1.66487 0.13295,-0.26345 0.845031,-1.08122 1.680692,-1.93012 1.592491,-1.61775 1.889507,-2.0622 3.14653,-4.70848 2.185738,-4.60139 3.526239,-9.01791 5.681847,-18.7198 0.891252,-4.01139 0.96772,-4.8485 0.52771,-5.77766 -0.459276,-0.96986 -1.375722,-1.56829 -2.407884,-1.57234 -0.829253,-0.003 -1.546458,0.39801 -2.939058,1.64437 -3.82242,3.42106 -8.787255,7.12067 -12.74678,9.49846 -3.87951,2.32973 -8.30459,4.28656 -11.631574,5.14365 -6.839651,1.76201 -13.592986,0.19847 -17.426951,-4.03469 -3.07396,-3.39404 -4.609161,-7.65106 -4.212298,-11.68049 0.267752,-2.718511 1.113477,-5.205546 2.861925,-8.416073 0.936909,-1.720351 1.144258,-2.369621 1.074491,-3.364479 -0.06047,-0.862284 -0.587527,-1.973168 -1.502767,-3.167386 -2.349246,-3.06535 -3.846649,-6.155626 -4.303427,-8.881262 -0.201598,-1.202928 -0.206367,-3.17166 -0.01041,-4.295359 0.770465,-4.41821 4.327755,-8.990496 8.909823,-11.452083 4.551988,-2.44542 10.209911,-2.566912 15.049027,-0.323126 0.456724,0.211768 1.405099,0.775676 2.107512,1.253116 1.758306,1.195176 2.53815,1.33464 3.429376,0.61331 1.173202,-0.949548 1.098628,-2.323114 -0.244797,-4.508987 -1.037112,-1.68748 -1.447697,-2.452917 -1.916666,-3.573183 -0.950774,-2.271198 -1.352597,-4.04446 -1.443088,-6.368397 -0.174527,-4.481977 1.41326,-8.648561 4.794378,-12.581214 2.928582,-3.406298 6.417676,-5.149001 10.739602,-5.364121 3.182682,-0.158421 6.191456,0.590536 9.916442,2.468445 1.486066,0.749185 2.285689,1.091603 2.833988,1.213582 1.546578,0.344087 2.983903,0.0021 5.270958,-1.254275 2.988495,-1.641653 5.434725,-2.300066 8.567468,-2.305971 2.654047,-0.005 4.752747,0.46173 7.060216,1.570141 4.97451,2.389551 8.33116,6.945882 9.39195,12.748701 0.20844,1.140213 0.32921,4.282309 0.20818,5.41616 -0.22883,2.143786 -1.02814,4.449117 -2.46223,7.101452 -2.15981,3.994572 -1.95702,3.52686 -1.95702,4.513673 0,0.831896 0.017,0.900116 0.31552,1.269818 0.75116,0.930089 1.49382,1.017265 2.97694,0.34945 1.47962,-0.666238 4.31746,-1.778527 5.54551,-2.173546 4.71151,-1.515552 9.71768,-1.19385 13.44667,0.864086 3.09075,1.705721 5.60199,4.927839 6.91152,8.868057 0.74195,2.232446 0.86632,3.04099 0.86725,5.63801 9.9e-4,2.152623 -0.0159,2.356651 -0.28557,3.504713 -0.60879,2.59138 -1.3896,4.169827 -3.31949,6.710474 -0.94375,1.242408 -1.41586,2.072464 -1.78788,3.143361 -0.25504,0.734168 -0.28218,0.945174 -0.28094,2.18409 0.002,1.569871 0.13697,2.199616 0.94908,4.414427 0.98791,2.694236 1.36118,4.584336 1.36509,6.912396 0.006,3.63104 -1.06616,6.5231 -3.49638,9.43025 -2.2475,2.68855 -4.97816,4.38456 -8.14887,5.06127 -1.36829,0.29202 -3.96138,0.31405 -5.59343,0.0475 -4.11294,-0.6717 -9.2308,-2.57337 -13.84587,-5.14479 -4.411969,-2.45827 -9.206633,-5.90044 -13.853811,-9.94588 -2.363164,-2.05717 -4.342169,-3.11396 -5.444195,-2.90723 -0.509156,0.0955 -1.013813,0.58805 -1.250379,1.22034 -0.316915,0.84702 -0.402234,1.95441 -0.458177,5.94641 -0.02857,2.03934 -0.100205,4.34788 -0.159183,5.13009 -0.597038,7.9191 -2.112966,13.18736 -5.309009,18.45035 -0.360437,0.59355 -0.872135,1.59924 -1.137106,2.23489 -0.86591,2.07729 -1.467807,2.93127 -2.31464,3.28406 -0.450277,0.18758 -0.794674,0.19008 -1.371013,0.01 z M 55.516358,107.09518 c 1.431469,-0.21993 2.360706,-0.50718 3.606295,-1.11482 2.438563,-1.1896 3.905925,-2.79076 4.473734,-4.88165 0.09103,-0.33523 0.190443,-1.137893 0.220904,-1.783685 0.07285,-1.544374 -0.123732,-2.551948 -0.751349,-3.851095 -0.397001,-0.821755 -0.599619,-1.096041 -1.391295,-1.883406 -1.622696,-1.613851 -3.17293,-2.22626 -8.342387,-3.295587 -3.626859,-0.750228 -4.297447,-0.97567 -5.159553,-1.734531 -0.96775,-0.851842 -1.250587,-2.068711 -0.725681,-3.122068 0.51005,-1.023523 1.787898,-1.950002 3.214194,-2.330387 0.870776,-0.232222 2.843426,-0.23144 3.737692,0.0015 1.077058,0.280539 2.230047,0.902272 2.809528,1.514984 0.516626,0.546264 0.581128,0.69016 1.092465,2.437443 0.32222,1.101026 1.002385,1.604098 2.16371,1.600345 0.880894,-0.0029 1.438562,-0.247572 1.846061,-0.810115 0.47399,-0.654312 0.535032,-1.189986 0.500305,-4.390487 -0.03102,-2.859836 -0.033,-2.882889 -0.290754,-3.383342 -0.156462,-0.303803 -0.4313,-0.624633 -0.692104,-0.807939 -0.365419,-0.256817 -0.548663,-0.309895 -1.180075,-0.341777 -0.664699,-0.03357 -0.804818,-0.0065 -1.265177,0.244009 -0.284728,0.154971 -0.563459,0.336918 -0.619405,0.404325 -0.07713,0.09295 -0.25989,0.03857 -0.756248,-0.224998 -1.581814,-0.839949 -3.196762,-1.190211 -5.487647,-1.190211 -3.287809,0 -5.566275,0.820417 -7.542887,2.715982 -1.827494,1.752572 -2.560268,3.381343 -2.563399,5.697788 -0.0028,2.091934 0.631153,3.687463 2.076176,5.225035 1.510363,1.607098 3.431478,2.408637 7.950103,3.316978 3.05924,0.614973 3.802346,0.809221 4.653686,1.21644 1.693477,0.810045 2.380347,2.252574 1.711594,3.594575 -0.506499,1.016414 -2.126719,1.983994 -3.957657,2.363464 -0.838746,0.17384 -1.24463,0.19991 -2.429199,0.15604 -1.99195,-0.0738 -3.361926,-0.50204 -4.920486,-1.53817 -0.746801,-0.49646 -0.982585,-0.83702 -1.36776,-1.975495 -0.476999,-1.409893 -1.122475,-1.888926 -2.454624,-1.821646 -0.628174,0.03171 -0.810114,0.0849 -1.180745,0.345115 -0.948405,0.665867 -1.145149,1.558449 -1.07331,4.869406 0.05119,2.35905 0.119625,2.751 0.597523,3.42215 0.306182,0.42998 1.124555,0.79199 1.793262,0.79322 0.684089,10e-4 1.090589,-0.17618 1.586225,-0.69244 l 0.395857,-0.41232 0.486987,0.24677 c 1.288858,0.65312 2.94123,1.17969 4.427182,1.41084 1.208798,0.18804 3.616147,0.19293 4.808259,0.01 z m 60.292792,-12.040821 4.7829,-11.428409 0.82372,-0.06873 c 0.96058,-0.08015 1.30224,-0.231947 1.78104,-0.791314 0.76437,-0.892984 0.78612,-2.343371 0.0471,-3.1357 -0.70387,-0.754581 -1.45104,-0.850187 -6.33575,-0.810693 l -3.94497,0.0319 -0.5893,0.289362 c -0.96196,0.472366 -1.42186,1.45783 -1.18905,2.547858 0.16198,0.758354 0.50578,1.211018 1.16456,1.53334 0.48207,0.235842 0.7423,0.285687 1.77608,0.340151 l 1.21125,0.06382 -3.32008,7.937891 c -1.82604,4.365835 -3.34999,7.885793 -3.38654,7.822104 -0.0812,-0.141382 -6.5874,-15.699152 -6.5874,-15.751884 0,-0.02062 0.53714,-0.05483 1.19363,-0.076 1.48538,-0.04789 2.17266,-0.310859 2.63383,-1.007729 0.26261,-0.396847 0.28677,-0.512282 0.28677,-1.370989 0,-0.894392 -0.0143,-0.95537 -0.31064,-1.321468 -0.82288,-1.016686 -1.19279,-1.0771 -6.336727,-1.034768 -3.550995,0.02922 -4.072234,0.05397 -4.474848,0.212408 -1.29055,0.507889 -1.805536,1.957917 -1.144281,3.221893 0.485723,0.928458 1.211391,1.311413 2.502716,1.320777 l 0.417872,0.003 4.622158,11.085336 c 2.54218,6.096935 4.70031,11.262065 4.79583,11.478075 l 0.17366,0.39276 2.31181,-0.0273 2.31182,-0.0273 4.78288,-11.428405 z M 76.65237,71.830747 c 1.1806,-0.350601 1.785173,-1.442783 1.516104,-2.738894 -0.09117,-0.439164 -0.21233,-0.664532 -0.540525,-1.005456 -0.563318,-0.585157 -1.178227,-0.76498 -2.615848,-0.76498 h -1.089303 l 0.56774,-1.422197 0.567732,-1.422204 h 5.608793 5.608807 l 0.559255,1.396803 0.559255,1.396811 -1.285262,0.05686 c -1.352802,0.05985 -1.865408,0.198756 -2.338527,0.63369 -0.400579,0.368262 -0.618429,0.965952 -0.618429,1.696715 0,1.157797 0.506311,1.873855 1.542578,2.181592 0.770191,0.22872 8.732361,0.22872 9.502566,0 1.02729,-0.305078 1.540847,-1.023551 1.544804,-2.161242 0.0023,-0.664569 -0.122864,-1.018126 -0.573732,-1.620434 -0.360824,-0.482011 -0.786463,-0.65986 -1.740967,-0.727433 L 92.583476,67.27063 87.916379,55.795761 c -2.566904,-6.311178 -4.667097,-11.488247 -4.667097,-11.504597 0,-0.01635 -2.457102,-0.02902 -5.460242,-0.02815 -5.841836,0.0017 -6.272658,0.03318 -6.967246,0.509121 -0.186917,0.128074 -0.450007,0.393632 -0.584656,0.590132 -0.214793,0.313482 -0.244796,0.471155 -0.244796,1.286427 0,0.815273 0.03,0.972947 0.244796,1.286428 0.608174,0.887568 1.360043,1.097043 3.945611,1.099253 1.019664,9.15e-4 1.853938,0.03974 1.853938,0.08638 0,0.04663 -1.637355,4.149426 -3.638559,9.117324 l -3.638568,9.03255 -0.783837,0.06423 c -1.516489,0.124257 -2.284531,0.802434 -2.377307,2.099147 -0.08728,1.219845 0.457799,2.078264 1.533243,2.414602 0.317237,0.09921 1.488222,0.133865 4.696188,0.138969 3.647254,0.0058 4.354299,-0.01719 4.824523,-0.156828 z m 1.988723,-16.166306 c 0.922332,-2.27679 1.754373,-4.33177 1.848987,-4.566624 l 0.172019,-0.426996 1.674533,4.126128 c 0.921001,2.269369 1.753782,4.324349 1.850628,4.566624 l 0.176075,0.440496 h -3.699609 -3.699602 z" />
  </g>
</svg>
